<svg width="20" height="20" viewBox="0 0 18 16" fill="white" xmlns="http://www.w3.org/2000/svg">
  <path d="M2 5.8C2 5.35 2.35 5 2.8 5H5L8.6 2.2C9 1.9 9.5 2.15 9.5 2.65V13.35C9.5 13.85 9 14.1 8.6 13.8L5 11H2.8C2.35 11 2 10.65 2 10.2V5.8Z"/>
  <path d="M11 6.2C11.7 7 11.7 9 11 9.8C10.8 10 10.8 10.3 11 10.5C11.2 10.7 11.5 10.7 11.7 10.5C12.8 9.3 12.8 6.7 11.7 5.5C11.5 5.3 11.2 5.3 11 5.5C10.8 5.7 10.8 6 11 6.2Z"/>
  <path d="M13 4.2C14.7 6 14.7 10 13 11.8C12.8 12 12.8 12.3 13 12.5C13.2 12.7 13.5 12.7 13.7 12.5C15.8 10.2 15.8 5.8 13.7 3.5C13.5 3.3 13.2 3.3 13 3.5C12.8 3.7 12.8 4 13 4.2Z"/>
  <path d="M15 2.8C17.3 5.5 17.3 10.5 15 13.2C14.8 13.4 14.8 13.7 15 13.9C15.2 14.1 15.5 14.1 15.7 13.9C18.4 10.7 18.4 5.3 15.7 2.1C15.5 1.9 15.2 1.9 15 2.1C14.8 2.3 14.8 2.6 15 2.8Z"/>
</svg>